<svg width="174" height="56" viewBox="0 0 174 56" version="1.1" xmlns="http://www.w3.org/2000/svg" xmlns:xlink="http://www.w3.org/1999/xlink">
<title>Back</title>
<desc>Created using Figma</desc>
<g id="Canvas" transform="translate(-1575 250)">
<g id="Back">
<g id="Vector">
<use xlink:href="#path0_fill" transform="translate(1575 -250)" fill="#33CC00"/>
<use xlink:href="#path1_fill" transform="translate(1575 -250)" fill="#33CC00"/>
</g>
<g id="BACK">
<use xlink:href="#path2_fill" transform="translate(1631 -236)"/>
</g>
</g>
</g>
<defs>
<path id="path0_fill" d="M 174 0L 46.1505 0L 46.1505 56L 174 56L 174 0Z"/>
<path id="path1_fill" d="M 46.1505 56L 46.1505 0L 0 27.6364L 46.1505 56Z"/>
<path id="path2_fill" d="M 23.8056 20.448C 23.8056 21.552 23.5776 22.512 23.1216 23.328C 22.6656 24.144 22.0416 24.828 21.2496 25.38C 20.4576 25.908 19.5336 26.316 18.4776 26.604C 17.4216 26.868 16.3056 27 15.1296 27L 2.67362 27L 2.67362 1.44L 16.8936 1.44C 17.7816 1.44 18.5856 1.632 19.3056 2.016C 20.0256 2.4 20.6376 2.904 21.1416 3.528C 21.6456 4.128 22.0296 4.824 22.2936 5.616C 22.5816 6.384 22.7256 7.176 22.7256 7.992C 22.7256 9.216 22.4136 10.368 21.7896 11.448C 21.1896 12.528 20.2776 13.344 19.0536 13.896C 20.5176 14.328 21.6696 15.096 22.5096 16.2C 23.3736 17.304 23.8056 18.72 23.8056 20.448ZM 17.7936 19.26C 17.7936 18.468 17.5656 17.796 17.1096 17.244C 16.6536 16.692 16.0776 16.416 15.3816 16.416L 8.57762 16.416L 8.57762 21.996L 15.1296 21.996C 15.8976 21.996 16.5336 21.744 17.0376 21.24C 17.5416 20.736 17.7936 20.076 17.7936 19.26ZM 8.57762 6.48L 8.57762 11.772L 14.3736 11.772C 15.0216 11.772 15.5976 11.556 16.1016 11.124C 16.6056 10.692 16.8576 10.02 16.8576 9.108C 16.8576 8.268 16.6296 7.62 16.1736 7.164C 15.7416 6.708 15.2136 6.48 14.5896 6.48L 8.57762 6.48ZM 36.2237 1.44L 41.5517 1.44L 50.8757 27L 44.8277 27L 42.8477 21.276L 34.8917 21.276L 32.9477 27L 26.8997 27L 36.2237 1.44ZM 41.8757 17.208L 38.8877 8.172L 35.8277 17.208L 41.8757 17.208ZM 53.4876 14.004C 53.4876 12.468 53.7756 10.944 54.3516 9.432C 54.9276 7.896 55.7676 6.528 56.8716 5.328C 57.9756 4.128 59.3196 3.156 60.9036 2.412C 62.4876 1.668 64.2876 1.296 66.3036 1.296C 68.7036 1.296 70.7796 1.812 72.5316 2.844C 74.3076 3.876 75.6276 5.22 76.4916 6.876L 71.9556 10.044C 71.6676 9.372 71.2956 8.82 70.8396 8.388C 70.4076 7.932 69.9276 7.572 69.3996 7.308C 68.8716 7.02 68.3316 6.828 67.7796 6.732C 67.2276 6.612 66.6876 6.552 66.1596 6.552C 65.0316 6.552 64.0476 6.78 63.2076 7.236C 62.3676 7.692 61.6716 8.28 61.1196 9C 60.5676 9.72 60.1596 10.536 59.8956 11.448C 59.6316 12.36 59.4996 13.284 59.4996 14.22C 59.4996 15.228 59.6556 16.2 59.9676 17.136C 60.2796 18.072 60.7236 18.9 61.2996 19.62C 61.8996 20.34 62.6076 20.916 63.4236 21.348C 64.2636 21.756 65.1996 21.96 66.2316 21.96C 66.7596 21.96 67.2996 21.9 67.8516 21.78C 68.4276 21.636 68.9676 21.432 69.4716 21.168C 69.9996 20.88 70.4796 20.52 70.9116 20.088C 71.3436 19.632 71.6916 19.08 71.9556 18.432L 76.7796 21.276C 76.3956 22.212 75.8196 23.052 75.0516 23.796C 74.3076 24.54 73.4436 25.164 72.4596 25.668C 71.4756 26.172 70.4316 26.556 69.3276 26.82C 68.2236 27.084 67.1436 27.216 66.0876 27.216C 64.2396 27.216 62.5356 26.844 60.9756 26.1C 59.4396 25.332 58.1076 24.324 56.9796 23.076C 55.8756 21.828 55.0116 20.412 54.3876 18.828C 53.7876 17.244 53.4876 15.636 53.4876 14.004ZM 82.2688 27L 82.2688 1.44L 88.1728 1.44L 88.1728 12.456L 97.5328 1.44L 104.157 1.44L 94.5808 12.852L 104.805 27L 98.0728 27L 90.8368 16.704L 88.1728 19.476L 88.1728 27L 82.2688 27Z"/>
</defs>
</svg>
