<?xml version="1.0" encoding="utf-8"?>
<!-- Generator: Adobe Illustrator 22.0.0, SVG Export Plug-In . SVG Version: 6.00 Build 0)  -->
<svg version="1.1" id="Layer_2" xmlns="http://www.w3.org/2000/svg" xmlns:xlink="http://www.w3.org/1999/xlink" x="0px" y="0px"
	 viewBox="0 0 537.1 105" style="enable-background:new 0 0 537.1 105;" xml:space="preserve">
<style type="text/css">
	.st0{fill:#33CC00;}
	.st1{fill:#FFFFFF;}
</style>
<g>
	<path class="st0" d="M79.4,25.3c-3.5-2.5-7.8-4-12.2-4H53.7L24.2,105h13.4l25.2-71.3c0.5,0.1,3.3,0.3,3.3,0.3l3.6,1.1
		c5.2,2.4,7.9,7.7,7.9,16c0,7.3-1.9,12.2-5.6,14.9c-1.7,1.2-3.4,1.8-5.1,1.8c-0.1,0-12.9,0-12.9,0l-4.8,13.5c0.1,0,17.7,0,17.7,0
		c4.9-0.5,9-1.9,12.4-4.1c6.2-4.2,10-10.9,11.4-20c0.2-1.9,0.3-3.9,0.3-6.1C91.1,39.2,87.2,30.6,79.4,25.3z"/>
	<path class="st0" d="M25.2,81.2h3.8l4.8-13.4h-9.3v0c-2.2-0.1-4.1-0.7-5.7-1.7c-3.5-2.4-5.3-7.3-5.3-14.9v-0.3
		c0-7.1,1.9-11.9,5.6-14.4c1.6-1,3.4-1.5,5.1-1.7l0,0h21L49.9,21H24.8l0,0C19,21.1,14,23,9.9,26.6C3.3,32,0,40.1,0,50.9
		c0,12.7,3.9,21.5,11.7,26.4C15.5,79.9,20,81.3,25.2,81.2L25.2,81.2z"/>
</g>
<g>
	<path class="st1" d="M133.5,23c5,0,9.6,1.3,13.6,3.9c2.1,1.5,3.2,3.4,3.2,5.8c-0.3,2.6-1.6,4.5-3.9,5.6c-2.3,1-4.4,0.7-6.3-0.7
		c-1.8-1-4-1.5-6.6-1.5c-2.1,0-4.1,0.6-6.1,1.7c-3.6,2.4-5.4,7.1-5.4,13.9V52c0,7.3,1.7,12.1,5.1,14.4c1.8,1.1,3.9,1.7,6.3,1.7
		c2.6,0,4.8-0.6,6.6-1.7c1.9-1.6,4.1-1.9,6.3-0.7c2.3,1.1,3.6,3,3.9,5.6c0,2.6-1.1,4.5-3.2,5.6c-4.1,2.8-8.6,4.1-13.6,4.1
		c-5,0-9.4-1.3-13.2-3.9c-7.5-4.7-11.2-13.2-11.2-25.3c0-10.4,3.2-18.2,9.5-23.4C122.7,24.8,127.7,23,133.5,23z"/>
	<path class="st1" d="M198.4,27.1c7.3,5.5,11,13.8,11,24.9c0,11.9-3.7,20.2-11,25.1c-4.1,2.6-8.6,3.9-13.6,3.9
		c-5.7,0-10.7-1.6-15.1-4.9c-6.2-5.2-9.2-13.2-9-24.1c0-11.5,3.7-19.7,11-24.6c3.9-2.8,8.3-4.1,13.2-4.1
		C189.9,23.2,194.5,24.5,198.4,27.1z M184.7,68.3c8,0,11.9-5.4,11.9-16.3c0-10.6-4-15.8-11.9-15.8c-2.1,0-4.1,0.7-6.1,1.9
		c-3.6,2.3-5.4,6.9-5.4,13.9v1C173.3,63.2,177.1,68.3,184.7,68.3z"/>
	<path class="st1" d="M264.7,63c-1.6,7.5-5.2,12.7-10.7,15.6c-3.9,2-7.8,2.8-11.7,2.4h-0.5h-0.2c-3.7-0.2-7.4-1.5-11-3.9l-1.9-1.2
		c-6.3-5.5-9.5-13.4-9.5-23.6c0-11.7,3.8-20.1,11.5-25.1c3.1-2.1,7-3.3,11.7-3.7c3.4,0,6.9,0.8,10.5,2.4V7.4c0-1.1,0.2-2.1,0.5-2.9
		c1.1-2.6,3.1-3.9,5.8-3.9c1.9,0,3.5,0.7,4.6,2.2c1.3,1.1,1.9,2.7,1.9,4.6v47C265.6,57.5,265.3,60.4,264.7,63z M252.2,42
		c-0.7-1.6-2.1-3.1-4.4-4.4c-1.5-0.6-3.3-1.1-5.6-1.5c-1.3,0-2.9,0.6-4.9,1.7c-3.6,2.4-5.4,7.2-5.4,14.4c0.2,6.2,1.9,10.9,5.4,14.1
		c1.5,0.8,3.1,1.5,4.9,1.9h1c1.6,0.2,3.2-0.2,4.6-1.2c3.4-1.5,5-5.7,4.9-12.7v-7.8C252.7,44.8,252.6,43.3,252.2,42z"/>
	<path class="st1" d="M312.9,66.1c2-1.6,4.1-2,6.6-1.2c2.1,1,3.3,2.8,3.7,5.4c0.5,2.4-0.3,4.4-2.4,5.8c-2.3,2-5.1,3.3-8.5,4.1
		c-2.4,0.5-6.5,0.7-12.2,0.5c-4.1,0-8-1.4-11.9-4.1c-7.2-5.2-11-13.1-11.5-23.6c-0.2-0.8-0.2-1.7,0-2.7c0.5-11,4.3-18.9,11.5-23.6
		c3.9-2.8,8.4-4.1,13.4-4.1c3.7,0,7.1,0.8,10,2.4c7.8,4.9,11.7,13,11.7,24.4v2.4c0,0.8-0.2,1.6-0.5,2.4c-1,2.6-2.9,3.9-5.8,3.9
		h-26.6c1.1,5.5,4.4,8.7,9.7,9.5h2.2C307.9,67.6,311.4,67.1,312.9,66.1z M300.7,35.7H300c-1.5,0-3.1,0.5-4.9,1.5
		c-2.6,1.8-4.2,4.5-4.9,8h20v-0.5c-0.7-4.1-2.3-6.7-4.9-8c-1.1-0.6-2.5-1-4.1-1H300.7z"/>
	<path class="st1" d="M358.5,23.5c4.1,0,7.8,1.2,11.2,3.7c7.5,5,11.2,13.3,11.2,24.9c0,2.1-0.1,4.1-0.2,5.8c-1.3,8.8-5,15.2-11,19.3
		c-3.3,2.1-7.2,3.4-11.9,3.9c-3.4,0-6.9-0.8-10.5-2.4v18.5c0,2.4-1,4.3-2.9,5.6c-2.3,1.3-4.6,1.3-6.8,0c-1.9-1.3-2.9-3.2-2.9-5.6
		V49.8c0-2.9,0.3-5.7,1-8.3c1.6-7.6,5.2-12.9,10.7-15.8c3.6-1.9,7.4-2.8,11.5-2.4h0.7V23.5z M348,62.5c1.1,2.9,4.4,4.8,9.7,5.6
		c1.6,0,3.2-0.6,4.9-1.7c3.6-2.6,5.4-7.4,5.4-14.4c0-8-2.5-13.1-7.6-15.4l-2.7-0.5c-0.2,0-0.4,0-0.7,0c-1.6-0.2-3.2,0.2-4.6,1
		c-3.4,1.6-5.1,5.8-5.1,12.7v7.8C347.3,59.6,347.5,61.2,348,62.5z"/>
	<path class="st1" d="M428.9,27.1c7.3,5.5,11,13.8,11,24.9c0,11.9-3.7,20.2-11,25.1c-4.1,2.6-8.6,3.9-13.6,3.9
		c-5.7,0-10.7-1.6-15.1-4.9c-6.2-5.2-9.2-13.2-9-24.1c0-11.5,3.7-19.7,11-24.6c3.9-2.8,8.3-4.1,13.2-4.1
		C420.5,23.2,425,24.5,428.9,27.1z M415.3,68.3c8,0,11.9-5.4,11.9-16.3c0-10.6-4-15.8-11.9-15.8c-2.1,0-4.1,0.7-6.1,1.9
		c-3.6,2.3-5.4,6.9-5.4,13.9v1C403.8,63.2,407.6,68.3,415.3,68.3z"/>
	<path class="st1" d="M468.6,22.7c4.7,0,8.8,0.9,12.2,2.7c5.5,3.1,7.9,6.6,7.1,10.5c-0.3,2.4-1.9,4.1-4.6,4.9
		c-2.4,0.7-4.5,0.1-6.1-1.7c-2.3-3.4-5.9-4.8-11-4.1c-0.3,0-0.6,0.1-0.7,0.2c-2.8,0.3-4.6,1.7-5.6,4.1c-0.5,1.3-0.3,2.7,0.5,4.1
		c1.9,1.3,5.1,1.9,9.5,1.7c2.6,0,4.5,0.2,5.8,0.5c5.2,0.5,9.4,3.1,12.7,7.8c2.1,2.9,3.1,6.1,2.9,9.5c0.2,5.2-2,9.5-6.3,12.9
		c-1.8,1.3-3.7,2.3-5.6,2.9c-8.6,2.8-16.2,2.8-22.9,0c-5.4-2.6-8.5-5.7-9.5-9.3c-0.7-2.8,0.4-5,3.2-6.6c2.6-1.6,5-1.5,7.1,0.2
		c0.3,0.2,0.6,0.3,0.7,0.5c2.8,3.6,7.6,4.8,14.6,3.7c2.8-0.2,4.6-1.2,5.6-3.2c0.6-1.1,0.6-2.4,0-3.7c-1.5-1.6-4.1-2.4-7.8-2.4
		c-8.1,0.3-14.1-1.3-17.8-4.9c-4.1-3.4-5.9-7.9-5.6-13.4c0-3.6,1.1-6.7,3.2-9.5c3.7-5.2,9.7-7.7,18-7.6H468.6z"/>
	<path class="st1" d="M513,0.1c1.9,0,3.6,0.7,4.9,1.9c1.3,1.3,1.9,2.8,1.7,4.6v16.8h8c2.6,0,4.5,1.1,5.8,3.4c1.3,1.9,1.3,4.1,0,6.3
		c-1.3,2.3-3.3,3.3-5.8,3.2h-8v25.3c0,2.4,0.4,4.1,1.2,4.9c0.5,0.7,1.3,1.1,2.4,1.2c1.3,0.5,2.9,0.4,4.9-0.2
		c2.6-0.8,4.9-0.2,6.8,1.7c1.6,1.6,2.1,3.7,1.5,6.3c-0.7,2.4-2.2,4-4.6,4.6l-4.6,0.7c-7.2,0.5-12.5-1.5-16.1-5.8
		c-2.9-3.4-4.4-7.9-4.4-13.4V36.4h-3.9c-2.6,0.2-4.5-0.9-5.6-3.2c-1.3-2.3-1.3-4.4,0-6.3c1.1-2.3,3-3.4,5.6-3.4h3.9V6.7
		c0-2.6,1.1-4.6,3.4-6.1C511,0.2,512,0.1,513,0.1z"/>
</g>
</svg>
